<?xml version="1.0" encoding="UTF-8" standalone="no"?>
<!-- Created with Inkscape (http://www.inkscape.org/) -->

<svg
   xmlns:dc="http://purl.org/dc/elements/1.1/"
   xmlns:cc="http://creativecommons.org/ns#"
   xmlns:rdf="http://www.w3.org/1999/02/22-rdf-syntax-ns#"
   xmlns:svg="http://www.w3.org/2000/svg"
   xmlns="http://www.w3.org/2000/svg"
   xmlns:sodipodi="http://sodipodi.sourceforge.net/DTD/sodipodi-0.dtd"
   xmlns:inkscape="http://www.inkscape.org/namespaces/inkscape"
   width="349.41602mm"
   height="112.04014mm"
   viewBox="0 0 1238.0882 396.99262"
   id="svg4236"
   version="1.1"
   inkscape:version="0.91 r13725"
   sodipodi:docname="tue5.svg">
  <defs
     id="defs4238" />
  <sodipodi:namedview
     id="base"
     pagecolor="#ffffff"
     bordercolor="#666666"
     borderopacity="1.0"
     inkscape:pageopacity="0.0"
     inkscape:pageshadow="2"
     inkscape:zoom="0.69999999"
     inkscape:cx="505.00099"
     inkscape:cy="92.296882"
     inkscape:document-units="px"
     inkscape:current-layer="layer1"
     showgrid="false"
     fit-margin-top="1"
     fit-margin-left="1"
     fit-margin-right="1"
     fit-margin-bottom="1"
     inkscape:window-width="1920"
     inkscape:window-height="1178"
     inkscape:window-x="1672"
     inkscape:window-y="58"
     inkscape:window-maximized="0" />
  <metadata
     id="metadata4241">
    <rdf:RDF>
      <cc:Work
         rdf:about="">
        <dc:format>image/svg+xml</dc:format>
        <dc:type
           rdf:resource="http://purl.org/dc/dcmitype/StillImage" />
        <dc:title />
      </cc:Work>
    </rdf:RDF>
  </metadata>
  <g
     inkscape:label="Ebene 1"
     inkscape:groupmode="layer"
     id="layer1"
     transform="translate(1772.9003,-968.8189)">
    <path
       inkscape:connector-curvature="0"
       id="path4801"
       d="m -1634.1789,1361.2702 c -24.1346,-2.5488 -45.4424,-13.7636 -59.195,-31.1558 -7.9714,-10.0809 -12.7339,-19.5772 -16.2397,-32.3813 l -2.7027,-9.8709 -0.5204,-77.1674 c -0.2862,-42.442 -0.8946,-77.542 -1.3519,-78 -0.4574,-0.4579 -13.0574,-1.0576 -28,-1.3326 l -27.1685,-0.5 0,-24.5 0,-24.5 27,-0.2577 c 23.9583,-0.2287 27.1408,-0.4474 28.25,-1.9411 0.963,-1.2969 1.25,-13.8097 1.25,-54.4923 l 0,-52.80889 25,0 25,0 0,53.37759 c 0,43.5257 0.2485,53.5838 1.3467,54.4952 0.9681,0.8034 29.7111,1.1892 102.25,1.3724 l 100.9033,0.2548 0.5,101.5 c 0.5573,113.1411 0.042,105.2626 7.5191,114.8603 4.3443,5.5762 8.4856,8.4044 16.5947,11.3332 6.3164,2.2813 6.8832,2.3065 51.8862,2.3065 42.3427,0 45.9111,-0.1347 51.4238,-1.9415 11.6253,-3.8103 19.433,-11.4841 23.3011,-22.9016 1.6086,-4.7482 1.7706,-13.1023 2.0431,-105.4069 l 0.2961,-100.25 25.0078,0 25.0078,0 -0.3607,102.25 c -0.393,111.4063 -0.065,104.8751 -6.1611,122.6442 -8.9067,25.9609 -30.4244,44.8617 -60.0664,52.7612 -9.9156,2.6425 -10.3137,2.6661 -52.431,3.1039 -57.2878,0.5956 -67.8124,-0.6343 -87.5605,-10.232 -21.2231,-10.3146 -36.5482,-29.2848 -43.646,-54.0273 -2.2827,-7.9575 -2.2977,-8.4161 -2.8244,-86.287 -0.4608,-68.1101 -0.7246,-78.4101 -2.0296,-79.2347 -2.1432,-1.354 -148.5324,-1.2989 -151.0657,0.057 -1.8849,1.0088 -1.9343,2.8752 -1.9343,73.1057 0,78.1903 0.053,79.0269 5.5583,88.5103 3.3623,5.7912 10.6199,11.8778 17.2946,14.5041 4.9303,1.9399 8.1711,2.2932 25.5332,2.7834 l 19.8861,0.5614 -0.1983,24.4461 c -0.1091,13.4454 -0.4219,24.8079 -0.6951,25.25 -0.6279,1.016 -28.3029,0.8099 -38.7006,-0.2882 z"
       style="fill:#84b818;fill-opacity:1"
       sodipodi:nodetypes="csscscscccscscccscscscssssscccsssssssccscsscsccc" />
    <text
       xml:space="preserve"
       style="font-style:normal;font-weight:normal;font-size:40px;line-height:125%;font-family:sans-serif;letter-spacing:0px;word-spacing:0px;fill:#646464;fill-opacity:1;stroke:none;stroke-width:1px;stroke-linecap:butt;stroke-linejoin:miter;stroke-opacity:1;"
       x="-1119.6718"
       y="1355.9333"
       id="text4137"
       sodipodi:linespacing="125%"><tspan
         sodipodi:role="line"
         id="tspan4139"
         x="-1119.6718"
         y="1355.9333"
         style="font-style:normal;font-variant:normal;font-weight:normal;font-stretch:normal;font-size:550px;font-family:Akkurat;-inkscape-font-specification:Akkurat;fill:#646464;fill-opacity:1;">e5</tspan></text>
  </g>
</svg>
